<svg width="28" height="28" viewBox="0 0 28 28" xmlns="http://www.w3.org/2000/svg"><g id="message_outline_28__Page-1" stroke="none" stroke-width="1" fill="none" fill-rule="evenodd"><g id="message_outline_28__message_outline_28"><path d="M0 0h28v28H0z"></path><path d="M14 3.5c6.32 0 11.5 4.44 11.5 10s-5.18 10-11.5 10c-1.35 0-2.68-.2-3.92-.6-1.4 1.3-3.46 2-6.13 2.1a1.43 1.43 0 0 1-1.36-2.02C3.5 20.96 4 19.48 4.1 18.6a9 9 0 0 1-1.6-5.1c0-5.56 5.18-10 11.5-10Zm0 2c-5.28 0-9.5 3.62-9.5 8 0 1.5.5 2.95 1.43 4.21a1 1 0 0 1 .2.6c-.01 1.05-.46 2.57-1.34 4.63 1.99-.21 3.39-.83 4.25-1.84a1 1 0 0 1 1.1-.29c1.21.45 2.51.69 3.86.69 5.28 0 9.5-3.62 9.5-8s-4.22-8-9.5-8Z" id="message_outline_28__Icon-Color" fill="currentColor" fill-rule="nonzero"></path></g></g></svg>