<svg width="28" height="28" viewBox="0 0 28 28" xmlns="http://www.w3.org/2000/svg"><g id="phone_outline_28__Page-1" stroke="none" stroke-width="1" fill="none" fill-rule="evenodd"><g id="phone_outline_28__phone_outline_28" fill-rule="nonzero"><path d="M0 0h28v28H0z"></path><path d="m16.11 17.26-.73.73c-.2.2-.5.26-.75.17a8.6 8.6 0 0 1-2.74-2.05c-1.1-1.1-1.78-2-2.05-2.74a.71.71 0 0 1 .17-.75l.73-.73a3.63 3.63 0 0 0 .29-4.9l-.87-1.03a2.8 2.8 0 0 0-3.95-.26 3.32 3.32 0 0 0-1.14 2.2c-.44 3.26 1.14 6.7 4.74 10.3 3.6 3.6 7.02 5.17 10.3 4.73a3.32 3.32 0 0 0 2.2-1.14 2.8 2.8 0 0 0-.27-3.96l-1.02-.86a3.64 3.64 0 0 0-4.9.29Zm-2.8-2.56c.52.52.97.92 1.34 1.19a5.65 5.65 0 0 1 7.65-.45l1.03.86a4.8 4.8 0 0 1 .49 6.8 5.27 5.27 0 0 1-3.45 1.81c-3.98.54-7.98-1.3-11.98-5.3s-5.84-8-5.31-11.9a5.26 5.26 0 0 1 1.83-3.54 4.8 4.8 0 0 1 6.79.5l.86 1.03a5.63 5.63 0 0 1-.4 7.6c.22.42.62.87 1.14 1.4Z" id="phone_outline_28__Icon-Color" fill="currentColor"></path></g></g></svg>