<svg width="28" height="28" viewBox="0 0 28 28" xmlns="http://www.w3.org/2000/svg"><g id="pin_outline_28__Page-1" stroke="none" stroke-width="1" fill="none" fill-rule="evenodd"><g id="pin_outline_28__pin_outline_28"><path d="M0 0h28v28H0z"></path><path d="m10.63 18.82-5.65 5.66c-.95.94-2.36-.47-1.42-1.41l5.66-5.66-4.55-4.55a1.37 1.37 0 0 1 .86-2.34l5.53-.43a.5.5 0 0 0 .32-.14l3.53-3.53a.5.5 0 0 0 .13-.26l.45-2.2a1 1 0 0 1 1.68-.52l7.43 7.43a1 1 0 0 1-.51 1.69l-2.21.44a.5.5 0 0 0-.26.13l-3.52 3.53a.5.5 0 0 0-.15.32l-.42 5.53a1.37 1.37 0 0 1-2.35.86l-4.55-4.55Zm5.33-2c.04-.59.3-1.15.72-1.57l3.53-3.53c.35-.35.8-.59 1.28-.68l.37-.08-4.78-4.78-.08.37c-.1.49-.33.93-.68 1.28l-3.53 3.53a2.5 2.5 0 0 1-1.57.73l-4.18.32 8.6 8.59.32-4.17Z" id="pin_outline_28__Icon-Color" fill="currentColor" fill-rule="nonzero"></path></g></g></svg>