<svg xmlns="http://www.w3.org/2000/svg" width="28" height="28" fill="currentColor" viewBox="0 0 28 28"><path d="M12 10.5a1.5 1.5 0 1 1-3 0 1.5 1.5 0 0 1 3 0ZM6.07 3.8c1.1-.58 2.17-.8 4.62-.8h6.62c2.45 0 3.52.22 4.62.8a5.46 5.46 0 0 1 2.27 2.27c.58 1.1.8 2.17.8 4.62v6.62c0 2.45-.22 3.53-.8 4.62a5.46 5.46 0 0 1-2.27 2.27c-1.1.59-2.17.8-4.62.8h-6.62c-2.45 0-3.52-.21-4.62-.8a5.46 5.46 0 0 1-2.27-2.27c-.58-1.1-.8-2.17-.8-4.62v-6.62c0-2.45.22-3.52.8-4.62A5.47 5.47 0 0 1 6.07 3.8ZM10.69 5c-2.33 0-3.02.21-3.68.56a3.47 3.47 0 0 0-1.45 1.45C5.21 7.67 5 8.36 5 10.7v6.62c0 1.67.1 2.5.3 3.07l2.7-2.7c.37-.37.69-.7.97-.94.3-.25.63-.48 1.03-.6a3 3 0 0 1 1.85-.01c.4.12.73.35 1.03.6.27.23.57.52.92.86l2.93-2.9c.37-.38.7-.7.98-.94.3-.25.63-.48 1.04-.61a3 3 0 0 1 1.85 0c.4.13.73.36 1.03.62.28.24.6.56.98.93l.39.4v-4.4c0-2.33-.21-3.02-.57-3.68A3.47 3.47 0 0 0 21 5.57C20.33 5.2 19.64 5 17.3 5h-6.62ZM23 17.9l-1.77-1.77c-.4-.4-.67-.66-.89-.85-.2-.17-.3-.22-.35-.23a1 1 0 0 0-.62 0c-.05.01-.15.05-.36.23-.22.18-.48.44-.89.85l-3.6 3.58a1 1 0 0 1-1.4 0l-.62-.6a16.8 16.8 0 0 0-.89-.84c-.2-.18-.3-.22-.36-.24a1 1 0 0 0-.61 0c-.06.02-.15.06-.36.24s-.48.44-.88.85l-2.94 2.94c.17.14.36.27.56.37.66.36 1.35.57 3.68.57h6.62c2.33 0 3.02-.21 3.68-.57A3.47 3.47 0 0 0 22.44 21c.32-.6.52-1.22.56-3.08Z" clip-rule="evenodd"></path></svg>