<svg width="28" height="28" viewBox="0 0 28 28" xmlns="http://www.w3.org/2000/svg"><g id="smile_outline_28__Page-1" stroke="none" stroke-width="1" fill="none" fill-rule="evenodd"><g id="smile_outline_28__smile_outline_28"><path d="M0 0h28v28H0z"></path><path d="M14 26a12 12 0 1 1 0-24 12 12 0 0 1 0 24Zm0-2a10 10 0 1 0 0-20 10 10 0 0 0 0 20Zm-4.39-5.9a1 1 0 1 1 1.46-1.37 4 4 0 0 0 5.85 0 1 1 0 1 1 1.47 1.36l-.3.3a6 6 0 0 1-8.48-.3Zm7.77-4.85a1.63 1.63 0 1 1 0-3.25 1.63 1.63 0 0 1 0 3.25Zm-6.75 0a1.63 1.63 0 1 1 0-3.25 1.63 1.63 0 0 1 0 3.25Z" id="smile_outline_28__Icon-Color" fill="currentColor" fill-rule="nonzero"></path></g></g></svg>