<svg height="28" viewBox="0 0 28 28" width="28" xmlns="http://www.w3.org/2000/svg"><g fill="none"><path d="M0 0h28v28H0z"></path><path d="M14.02 3a14 14 0 0 1 2.7.26c.55.1.76.75.56 1.27-.17.44-.62.75-1.08.67-.7-.13-1.43-.2-2.18-.2-5.54 0-9.97 3.73-9.97 8.23a7.1 7.1 0 0 0 1.49 4.32 1 1 0 0 1 .2.6c0 .99-.4 2.38-1.17 4.25l-.15.35-.09.19.41-.05a6.74 6.74 0 0 0 3.83-1.54l.16-.16.14-.16a1 1 0 0 1 1.1-.28c1.27.47 2.64.7 4.05.7 5.55 0 9.98-3.72 9.98-8.22 0-1.05-.24-2.06-.68-2.99-.2-.4-.06-.91.29-1.2.43-.38 1.15-.4 1.41.12.63 1.25.98 2.62.98 4.07 0 5.7-5.4 10.23-11.98 10.23-1.18 0-2.34-.15-3.44-.43l-.48-.13-.2-.06-.08.07c-1.32 1.18-3.18 1.85-5.56 2.04l-.4.03-.37.02A1.43 1.43 0 0 1 2 23.37l.03-.13.03-.1.06-.17.16-.34a18.65 18.65 0 0 0 1.4-3.9l.02-.17.01-.11-.19-.28a9.07 9.07 0 0 1-1.46-4.24l-.02-.35v-.35C2.05 7.53 7.45 3 14.02 3zM21 4a2 2 0 1 1 0 4 2 2 0 0 1 0-4z" fill="currentColor"></path></g></svg>